<svg width="24" height="25" viewBox="0 0 24 25" fill="none" xmlns="http://www.w3.org/2000/svg">
<path d="M12 22.5C6.47715 22.5 2 18.0228 2 12.5C2 6.97715 6.47715 2.5 12 2.5C17.5228 2.5 22 6.97715 22 12.5C21.9939 18.0203 17.5203 22.4939 12 22.5ZM11.984 20.5H12C16.4167 20.4956 19.9942 16.9127 19.992 12.496C19.9898 8.07929 16.4087 4.5 11.992 4.5C7.57528 4.5 3.99421 8.07929 3.992 12.496C3.98979 16.9127 7.56729 20.4956 11.984 20.5ZM10 17.5L6 13.5L7.41 12.09L10 14.67L16.59 8.08L18 9.5L10 17.5Z" fill="#219653"/>
</svg>
