<svg width="41" height="42" viewBox="0 0 41 42" fill="none" xmlns="http://www.w3.org/2000/svg">
<path d="M17.4272 6.62298C13.5181 2.5578 7.1934 2.5578 3.29366 6.62298C0.632386 9.38825 -0.41227 13.1982 0.14551 16.7859C5.6335 15.0086 12.0622 12.1866 18.6515 7.89926L17.4272 6.62298Z" fill="white"/>
<path d="M39.7904 11.9264C39.3083 10.0073 38.3487 8.19686 36.9164 6.68896C35.3613 7.79507 33.7967 8.99099 32.2226 10.2767C22.5701 18.1707 12.6577 22.5857 4.92917 24.8783L1.84247 29.0002L6.53633 29.454C7.57153 29.2885 8.8289 28.934 8.8289 28.934C16.6851 26.7312 27.0229 22.2785 37.0819 14.0536C37.9895 13.3162 38.8923 12.6071 39.7904 11.9264Z" fill="url(#paint0_linear_4466_10398)"/>
<path d="M3.33616 23.2098C11.1687 20.9881 21.4309 16.5448 31.4143 8.38132C32.7331 7.30358 34.0519 6.28729 35.3565 5.33244L35.1911 0.591309L29.8024 1.68796L26.5502 4.60449C24.3995 6.36292 22.2345 7.95117 20.0838 9.37871L20.079 9.38344C13.1446 13.9875 6.36141 16.9513 0.632349 18.7806C1.17122 20.3831 2.05989 21.8862 3.29362 23.1672L3.33616 23.2098Z" fill="url(#paint1_linear_4466_10398)"/>
<path d="M16.1662 36.281C20.7123 36.5202 23.8171 34.8823 29.4359 30.8911C26.1205 37.3051 22.2639 42.8739 18.5819 39.0986L16.1662 36.281Z" fill="white"/>
<path d="M40.1402 14.1718C39.3934 14.7437 38.6465 15.3346 37.8997 15.9491C28.1716 23.8998 18.1836 28.3242 10.4314 30.6026L14.3264 34.6584C20.0554 33.0654 27.1269 30.2765 34.4584 25.6819L36.8645 23.1766C39.2421 20.7091 40.334 17.405 40.1402 14.1718Z" fill="white"/>
<defs>
<linearGradient id="paint0_linear_4466_10398" x1="39.7263" y1="19.0672" x2="1.76805" y2="19.1302" gradientUnits="userSpaceOnUse">
<stop stop-color="white"/>
<stop offset="0.492058" stop-color="#E3E3E7"/>
<stop offset="1" stop-color="white"/>
</linearGradient>
<linearGradient id="paint1_linear_4466_10398" x1="35.2978" y1="12.8898" x2="0.564243" y2="12.943" gradientUnits="userSpaceOnUse">
<stop stop-color="white"/>
<stop offset="0.492058" stop-color="#E3E3E7"/>
<stop offset="1" stop-color="white"/>
</linearGradient>
</defs>
</svg>
