<svg width="181" height="50" viewBox="0 0 181 50" fill="none" xmlns="http://www.w3.org/2000/svg">
<path d="M44.3193 30.5865V28.7557L49.4999 27.8209V30.3528C49.5258 31.729 49.8764 32.7678 50.5516 33.4689C51.2527 34.144 52.1745 34.4816 53.3171 34.4816C54.4337 34.4816 55.3166 34.1181 55.9658 33.391C56.641 32.6639 56.9786 31.6901 56.9786 30.4696V11.3834H62.3539V30.4696C62.3539 33.0144 61.5099 35.1698 59.822 36.9356C58.1341 38.7014 55.9788 39.5843 53.3561 39.5843C50.6295 39.5843 48.4352 38.7663 46.7733 37.1303C45.1373 35.4684 44.3193 33.2871 44.3193 30.5865ZM66.7052 33.7805C66.7052 32.1445 67.2375 30.8332 68.3022 29.8464C69.3669 28.8596 70.7432 28.2364 72.4311 27.9767L77.1442 27.2756C78.105 27.1458 78.5854 26.6913 78.5854 25.9123C78.5854 25.1852 78.2998 24.5879 77.7285 24.1205C77.1831 23.6531 76.3911 23.4194 75.3524 23.4194C74.2618 23.4194 73.3919 23.718 72.7427 24.3153C72.1194 24.9125 71.7689 25.6526 71.691 26.5355L67.0947 25.5617C67.2765 23.8998 68.0945 22.4326 69.5486 21.1602C71.0028 19.8878 72.9244 19.2516 75.3135 19.2516C78.1699 19.2516 80.2733 19.9397 81.6236 21.316C82.9739 22.6663 83.6491 24.4062 83.6491 26.5355V35.9618C83.6491 37.1044 83.727 38.1171 83.8828 39H79.1307C79.0009 38.4287 78.936 37.6627 78.936 36.7019C77.7155 38.5975 75.8328 39.5453 73.288 39.5453C71.3145 39.5453 69.7174 38.974 68.497 37.8315C67.3024 36.6889 66.7052 35.3386 66.7052 33.7805ZM74.3786 35.6891C75.5991 35.6891 76.5989 35.3515 77.3779 34.6764C78.1829 33.9753 78.5854 32.8327 78.5854 31.2486V30.3917L74.2618 31.0539C72.6778 31.2876 71.8857 32.0926 71.8857 33.4689C71.8857 34.0921 72.1065 34.6244 72.5479 35.0659C72.9894 35.4814 73.5996 35.6891 74.3786 35.6891ZM94.0516 39H88.871V19.8359H93.8179V22.1729C94.3113 21.29 95.0903 20.5889 96.155 20.0696C97.2196 19.5502 98.3103 19.2905 99.4269 19.2905C102.205 19.2905 104.101 20.3552 105.114 22.4846C106.49 20.3552 108.516 19.2905 111.19 19.2905C113.138 19.2905 114.774 19.9008 116.098 21.1213C117.448 22.3417 118.124 24.1595 118.124 26.5745V39H113.099V27.6262C113.099 26.5355 112.813 25.6656 112.242 25.0164C111.697 24.3412 110.853 24.0037 109.71 24.0037C108.645 24.0037 107.788 24.3672 107.139 25.0943C106.49 25.8214 106.166 26.7173 106.166 27.782V39H101.024V27.6262C101.024 26.5355 100.738 25.6656 100.167 25.0164C99.5957 24.3412 98.7517 24.0037 97.6351 24.0037C96.5445 24.0037 95.6746 24.3672 95.0254 25.0943C94.3762 25.7954 94.0516 26.6913 94.0516 27.782V39ZM121.736 33.6636L126.177 32.6899C126.228 33.5208 126.553 34.2219 127.15 34.7932C127.774 35.3386 128.618 35.6112 129.682 35.6112C130.487 35.6112 131.11 35.4294 131.552 35.0659C131.993 34.7023 132.214 34.2479 132.214 33.7026C132.214 32.7418 131.526 32.1186 130.15 31.8329L127.618 31.2486C125.826 30.8591 124.476 30.158 123.567 29.1453C122.684 28.1325 122.242 26.925 122.242 25.5228C122.242 23.7829 122.918 22.3028 124.268 21.0823C125.644 19.8618 127.358 19.2516 129.41 19.2516C130.708 19.2516 131.85 19.4463 132.837 19.8359C133.824 20.1994 134.59 20.6798 135.135 21.2771C135.681 21.8483 136.096 22.4326 136.382 23.0299C136.667 23.6271 136.849 24.2114 136.927 24.7827L132.604 25.7565C132.5 25.0813 132.188 24.4841 131.669 23.9647C131.175 23.4454 130.435 23.1857 129.448 23.1857C128.773 23.1857 128.189 23.3675 127.696 23.731C127.228 24.0945 126.995 24.549 126.995 25.0943C126.995 26.0291 127.579 26.6004 128.747 26.8082L131.474 27.3924C133.318 27.782 134.72 28.4961 135.681 29.5348C136.667 30.5735 137.161 31.8199 137.161 33.2741C137.161 34.988 136.512 36.4682 135.213 37.7146C133.915 38.961 132.084 39.5843 129.721 39.5843C128.371 39.5843 127.163 39.3895 126.099 39C125.034 38.5845 124.203 38.0652 123.606 37.4419C123.034 36.7927 122.593 36.1565 122.281 35.5333C121.996 34.8841 121.814 34.2609 121.736 33.6636ZM159.906 19.8359L152.233 27.8988L160.062 39H153.713L148.649 31.6771L146.507 33.9363V39H141.326V10.7991H146.507V26.964L153.129 19.8359H159.906ZM165.988 27.2366H174.557C174.505 26.172 174.116 25.2761 173.389 24.549C172.687 23.8219 171.649 23.4583 170.272 23.4583C169.026 23.4583 168.013 23.8479 167.234 24.6269C166.455 25.4059 166.04 26.2758 165.988 27.2366ZM175.063 32.2224L179.387 33.5078C178.868 35.2736 177.842 36.7278 176.31 37.8704C174.804 39.013 172.921 39.5843 170.662 39.5843C167.909 39.5843 165.572 38.6624 163.651 36.8187C161.729 34.949 160.768 32.4561 160.768 29.34C160.768 26.3797 161.703 23.9647 163.573 22.095C165.442 20.1994 167.65 19.2516 170.195 19.2516C173.155 19.2516 175.466 20.1345 177.128 21.9003C178.816 23.6661 179.66 26.0941 179.66 29.1842C179.66 29.392 179.647 29.6257 179.621 29.8853C179.621 30.145 179.621 30.3528 179.621 30.5086L179.582 30.7812H165.871C165.923 32.0277 166.416 33.0664 167.351 33.8974C168.286 34.7283 169.402 35.1438 170.701 35.1438C172.908 35.1438 174.362 34.17 175.063 32.2224Z" fill="#06038D"/>
<path d="M17.1072 10.4275C13.2698 6.43694 7.06131 6.43694 3.2332 10.4275C0.620801 13.1419 -0.404668 16.8819 0.142867 20.4037C5.53006 18.6591 11.8406 15.8889 18.309 11.6803L17.1072 10.4275Z" fill="#06038D"/>
<path d="M39.0596 15.6339C38.5863 13.7501 37.6443 11.9729 36.2384 10.4927C34.7118 11.5785 33.1759 12.7524 31.6307 14.0145C22.1556 21.7636 12.4252 26.0974 4.8386 28.3479L1.80859 32.3941L6.41625 32.8396C7.43244 32.6772 8.66671 32.3291 8.66671 32.3291C16.3786 30.1668 26.5266 25.7958 36.4008 17.722C37.2917 16.9981 38.178 16.3021 39.0596 15.6339Z" fill="url(#paint0_linear_3037_9633)"/>
<path d="M3.27525 26.7099C10.964 24.529 21.0377 20.1673 30.8376 12.1538C32.1322 11.0958 33.4268 10.0982 34.7075 9.16089L34.5451 4.50684L29.2554 5.58335L26.0629 8.44631C23.9517 10.1724 21.8265 11.7315 19.7152 13.1328L19.7106 13.1375C12.9035 17.657 6.24494 20.5663 0.621094 22.3621C1.15007 23.9351 2.02241 25.4106 3.23349 26.6681L3.27525 26.7099Z" fill="url(#paint1_linear_3037_9633)"/>
<path d="M15.8691 39.541C20.3318 39.7758 23.3796 38.168 28.8952 34.2501C25.6406 40.5463 21.8549 46.0128 18.2405 42.3069L15.8691 39.541Z" fill="#06038D"/>
<path d="M39.4035 17.8379C38.6703 18.3993 37.9372 18.9794 37.2041 19.5826C27.6547 27.3873 17.8501 31.7305 10.2402 33.967L14.0637 37.9482C19.6875 36.3845 26.6292 33.6468 33.826 29.1366L36.1879 26.6773C38.5219 24.2552 39.5937 21.0117 39.4035 17.8379Z" fill="#06038D"/>
<defs>
<linearGradient id="paint0_linear_3037_9633" x1="38.9966" y1="22.6435" x2="1.73555" y2="22.7054" gradientUnits="userSpaceOnUse">
<stop stop-color="#06038D"/>
<stop offset="0.492058" stop-color="#06038D" stop-opacity="0.49"/>
<stop offset="1" stop-color="#06038D"/>
</linearGradient>
<linearGradient id="paint1_linear_3037_9633" x1="34.6499" y1="16.5795" x2="0.554239" y2="16.6316" gradientUnits="userSpaceOnUse">
<stop stop-color="#06038D"/>
<stop offset="0.492058" stop-color="#06038D" stop-opacity="0.49"/>
<stop offset="1" stop-color="#06038D"/>
</linearGradient>
</defs>
</svg>
