<svg width="24" height="24" viewBox="0 0 24 24" fill="none" xmlns="http://www.w3.org/2000/svg">
<path d="M12.2312 21.3491C7.04907 21.3491 2.84814 17.1481 2.84814 11.966C2.84814 6.78394 7.04907 2.58301 12.2312 2.58301C17.4133 2.58301 21.6142 6.78394 21.6142 11.966C21.6085 17.1458 17.4109 21.3434 12.2312 21.3491ZM4.72475 12.1274C4.76915 16.2571 8.14121 19.5753 12.2711 19.5532C16.401 19.5309 19.7372 16.1767 19.7372 12.0467C19.7372 7.9168 16.401 4.56262 12.2711 4.54031C8.14121 4.51822 4.76915 7.83634 4.72475 11.966V12.1274ZM16.9227 12.9043H7.53966V11.0277H16.9227V12.9043Z" fill="#232222"/>
</svg>
