<svg width="20" height="22" viewBox="0 0 20 22" fill="none" xmlns="http://www.w3.org/2000/svg">
<path d="M13.25 16.4167H18.6667L17.1447 14.8947C16.7319 14.4819 16.5 13.9221 16.5 13.3383V9.91667C16.5 7.08653 14.6913 4.67885 12.1667 3.78653V3.41667C12.1667 2.22005 11.1967 1.25 10 1.25C8.80342 1.25 7.83337 2.22005 7.83337 3.41667V3.78653C5.30879 4.67885 3.50004 7.08653 3.50004 9.91667V13.3383C3.50004 13.9221 3.26815 14.4819 2.85538 14.8947L1.33337 16.4167H6.75004M13.25 16.4167V17.5C13.25 19.2949 11.795 20.75 10 20.75C8.20511 20.75 6.75004 19.2949 6.75004 17.5V16.4167M13.25 16.4167H6.75004" stroke="#3E55AB" strokeWidth="2" strokeLinecap="round" strokeLinejoin="round"/>
</svg>
