<svg width="16" height="20" viewBox="0 0 16 20" fill="none" xmlns="http://www.w3.org/2000/svg">
<path d="M14 4.50004H12C12 2.47421 10.21 0.833374 8 0.833374C5.79 0.833374 4 2.47421 4 4.50004H2C0.9 4.50004 0 5.32504 0 6.33337V17.3334C0 18.3417 0.9 19.1667 2 19.1667H14C15.1 19.1667 16 18.3417 16 17.3334V6.33337C16 5.32504 15.1 4.50004 14 4.50004ZM8 2.66671C9.1 2.66671 10 3.49171 10 4.50004H6C6 3.49171 6.9 2.66671 8 2.66671ZM14 17.3334H2V6.33337H4V8.16671C4 8.67087 4.45 9.08337 5 9.08337C5.55 9.08337 6 8.67087 6 8.16671V6.33337H10V8.16671C10 8.67087 10.45 9.08337 11 9.08337C11.55 9.08337 12 8.67087 12 8.16671V6.33337H14V17.3334Z" fill="#6C6A81"/>
</svg>
