<svg width="23" height="24" viewBox="0 0 23 24" fill="none" xmlns="http://www.w3.org/2000/svg">
<path d="M11.4548 21.3491C6.2727 21.3491 2.07178 17.1481 2.07178 11.966C2.07178 6.78394 6.2727 2.58301 11.4548 2.58301C16.6369 2.58301 20.8378 6.78394 20.8378 11.966C20.8322 17.1458 16.6346 21.3434 11.4548 21.3491ZM3.94838 12.1274C3.99278 16.2571 7.36485 19.5753 11.4947 19.5532C15.6246 19.5309 18.9608 16.1767 18.9608 12.0467C18.9608 7.9168 15.6246 4.56262 11.4947 4.54031C7.36485 4.51822 3.99278 7.83634 3.94838 11.966V12.1274ZM12.3931 16.6576H10.5165V12.9043H6.76329V11.0277H10.5165V7.27452H12.3931V11.0277H16.1463V12.9043H12.3931V16.6576Z" fill="#232222"/>
</svg>
