<svg width="19" height="19" viewBox="0 0 19 19" fill="none" xmlns="http://www.w3.org/2000/svg">
<path d="M9.897 18.968C9.36598 18.9696 8.85641 18.7586 8.482 18.382L0.648001 10.547C0.23459 10.1348 0.0226111 9.56207 0.068001 8.98001L0.568001 2.41401C0.639299 1.4264 1.4262 0.641631 2.414 0.573012L8.98 0.0730117C9.031 0.0620117 9.083 0.0620117 9.134 0.0620117C9.66385 0.063372 10.1717 0.273991 10.547 0.648012L18.382 8.48201C18.7572 8.85711 18.9681 9.36594 18.9681 9.89651C18.9681 10.4271 18.7572 10.9359 18.382 11.311L11.311 18.382C10.9368 18.7583 10.4277 18.9693 9.897 18.968ZM9.133 2.06201L2.562 2.56201L2.062 9.13301L9.897 16.968L16.967 9.89801L9.133 2.06201ZM5.654 7.65402C4.69984 7.65422 3.87841 6.98037 3.69208 6.04458C3.50575 5.10879 4.00641 4.17169 4.88787 3.80639C5.76933 3.44109 6.78609 3.74933 7.31633 4.54259C7.84656 5.33586 7.74259 6.39322 7.068 7.06801C6.69383 7.44433 6.18468 7.65534 5.654 7.65402Z" fill="#6C6A81"/>
</svg>
