<svg width="14" height="15" viewBox="0 0 14 15" fill="none" xmlns="http://www.w3.org/2000/svg">
<path d="M7 14.5C3.13401 14.5 0 11.366 0 7.5C0 3.63401 3.13401 0.5 7 0.5C10.866 0.5 14 3.63401 14 7.5C13.9956 11.3642 10.8642 14.4956 7 14.5ZM7 2.5C4.23858 2.5 2 4.73858 2 7.5C2 10.2614 4.23858 12.5 7 12.5C9.76142 12.5 12 10.2614 12 7.5C12 4.73858 9.76142 2.5 7 2.5ZM7 10.5C5.34315 10.5 4 9.15685 4 7.5C4 5.84315 5.34315 4.5 7 4.5C8.65685 4.5 10 5.84315 10 7.5C10 8.29565 9.68393 9.05871 9.12132 9.62132C8.55871 10.1839 7.79565 10.5 7 10.5Z" fill="#06038D"/>
</svg>
