<svg width="146" height="30" viewBox="0 0 146 30" fill="none" xmlns="http://www.w3.org/2000/svg">
<path d="M55.5926 8.8094L51.7451 10.0092C51.6003 9.20932 51.2073 8.48315 50.566 7.83064C49.9248 7.17814 48.9836 6.85189 47.7425 6.85189C46.7289 6.85189 45.9015 7.13604 45.2602 7.70435C44.619 8.25162 44.2984 8.91464 44.2984 9.69344C44.2984 11.0616 45.0947 11.9035 46.6875 12.2193L49.7593 12.8192C51.7037 13.198 53.2138 13.9873 54.2894 15.1871C55.3651 16.3869 55.9029 17.7971 55.9029 19.4179C55.9029 21.2701 55.1789 22.8909 53.7309 24.2801C52.3036 25.6482 50.3799 26.3323 47.9597 26.3323C46.5738 26.3323 45.3223 26.1218 44.2053 25.7009C43.0883 25.2799 42.1884 24.7221 41.5058 24.0275C40.8232 23.3119 40.2854 22.5646 39.8924 21.7858C39.52 20.986 39.2925 20.1651 39.2097 19.3232L43.1813 18.2497C43.2848 19.4494 43.7398 20.4493 44.5466 21.2491C45.374 22.0489 46.522 22.4489 47.9907 22.4489C49.1077 22.4489 49.9765 22.1963 50.5971 21.6911C51.2383 21.186 51.5589 20.5229 51.5589 19.702C51.5589 19.0495 51.3211 18.4917 50.8453 18.0287C50.3902 17.5446 49.7386 17.2183 48.8905 17.0499L45.8187 16.4185C44.0398 16.0396 42.6332 15.2924 41.5989 14.1768C40.5646 13.0612 40.0475 11.672 40.0475 10.0092C40.0475 8.03061 40.7922 6.36777 42.2815 5.02066C43.7916 3.67355 45.6015 3 47.7115 3C48.9733 3 50.1006 3.17891 51.0935 3.53674C52.0864 3.89456 52.8828 4.37868 53.4827 4.98909C54.0826 5.57845 54.548 6.18886 54.879 6.82031C55.2099 7.45177 55.4478 8.1148 55.5926 8.8094Z" fill="#06038D"/>
<path d="M73.2947 25.8587H59.5182V3.47359H73.2947V7.57806H63.8V12.6929H72.3949V16.5763H63.8V21.7543H73.2947V25.8587Z" fill="#06038D"/>
<path d="M91.6643 25.8587H77.5775V3.47359H81.8594V21.6911H91.6643V25.8587Z" fill="#06038D"/>
<path d="M109.027 25.8587H94.94V3.47359H99.2219V21.6911H109.027V25.8587Z" fill="#06038D"/>
<path d="M126.079 25.8587H112.302V3.47359H126.079V7.57806H116.584V12.6929H125.179V16.5763H116.584V21.7543H126.079V25.8587Z" fill="#06038D"/>
<path d="M141.222 25.8587L136.909 17.2394H134.675V25.8587H130.362V3.47359H138.957C141.067 3.47359 142.763 4.1261 144.045 5.43111C145.328 6.73612 145.969 8.37791 145.969 10.3565C145.969 11.9141 145.545 13.2612 144.697 14.3978C143.869 15.5134 142.732 16.2816 141.284 16.7026L146 25.8587H141.222ZM134.675 13.4822H138.15C139.226 13.4822 140.063 13.198 140.663 12.6297C141.284 12.0614 141.594 11.3142 141.594 10.388C141.594 9.44086 141.284 8.68311 140.663 8.1148C140.063 7.54649 139.226 7.26233 138.15 7.26233H134.675V13.4822Z" fill="#06038D"/>
<path d="M12.6748 4.38675C9.83163 1.43017 5.23174 1.43017 2.39548 4.38675C0.459953 6.39791 -0.29982 9.16885 0.105851 11.7782C4.09724 10.4856 8.77276 8.43314 13.5652 5.31498L12.6748 4.38675Z" fill="#06038D"/>
<path d="M28.9394 8.24399C28.5887 6.84821 27.8908 5.5315 26.8492 4.43481C25.7181 5.23928 24.5802 6.10906 23.4353 7.04417C16.4152 12.7854 9.20593 15.9964 3.58499 17.6638L1.34005 20.6616L4.75387 20.9917C5.50676 20.8713 6.42124 20.6135 6.42124 20.6135C12.135 19.0114 19.6537 15.773 26.9695 9.79104C27.6296 9.25473 28.2862 8.73905 28.9394 8.24399Z" fill="url(#paint0_linear_4557_10770)"/>
<path d="M2.4264 16.4503C8.12298 14.8345 15.5866 11.6029 22.8474 5.66564C23.8066 4.8818 24.7658 4.14265 25.7146 3.4482L25.5943 0L21.6751 0.797589L19.3099 2.91877C17.7456 4.19766 16.1711 5.35279 14.6068 6.39103L14.6034 6.39447C9.56001 9.74297 4.62665 11.8985 0.45993 13.229C0.851849 14.3944 1.49817 15.4877 2.39546 16.4193L2.4264 16.4503Z" fill="url(#paint1_linear_4557_10770)"/>
<path d="M11.7576 25.9569C15.064 26.1309 17.3221 24.9397 21.4086 22.0368C18.9973 26.7017 16.1924 30.7519 13.5146 28.0061L11.7576 25.9569Z" fill="#06038D"/>
<path d="M29.1938 9.87695C28.6506 10.2929 28.1074 10.7227 27.5642 11.1696C20.4891 16.9521 13.2248 20.17 7.58669 21.827L10.4195 24.7767C14.5862 23.6182 19.7293 21.5898 25.0615 18.2482L26.8113 16.4261C28.5406 14.6315 29.3348 12.2285 29.1938 9.87695Z" fill="#06038D"/>
<defs>
<linearGradient id="paint0_linear_4557_10770" x1="28.8927" y1="13.4374" x2="1.28593" y2="13.4833" gradientUnits="userSpaceOnUse">
<stop stop-color="#06038D"/>
<stop offset="0.492058" stop-color="#06038D" stop-opacity="0.49"/>
<stop offset="1" stop-color="#06038D"/>
</linearGradient>
<linearGradient id="paint1_linear_4557_10770" x1="25.6719" y1="8.94466" x2="0.410398" y2="8.98329" gradientUnits="userSpaceOnUse">
<stop stop-color="#06038D"/>
<stop offset="0.492058" stop-color="#06038D" stop-opacity="0.49"/>
<stop offset="1" stop-color="#06038D"/>
</linearGradient>
</defs>
</svg>
