<svg width="22" height="20" viewBox="0 0 22 20" fill="none" xmlns="http://www.w3.org/2000/svg">
<path d="M21.0833 9.99083L18.8467 7.43333L19.1583 4.05083L15.8492 3.29917L14.1167 0.375L11 1.71333L7.88333 0.375L6.15083 3.29917L2.84167 4.04167L3.15333 7.43333L0.916666 9.99083L3.15333 12.5483L2.84167 15.94L6.15083 16.6917L7.88333 19.625L11 18.2775L14.1167 19.6158L15.8492 16.6917L19.1583 15.94L18.8467 12.5575L21.0833 9.99083ZM17.4625 11.3475L16.9492 11.9433L17.0225 12.7225L17.1875 14.51L15.4458 14.9042L14.6758 15.0783L14.2725 15.7567L13.365 17.2967L11.7333 16.5908L11 16.2792L10.2758 16.5908L8.64417 17.2967L7.73667 15.7658L7.33333 15.0875L6.56333 14.9133L4.82167 14.5192L4.98667 12.7225L5.06 11.9433L4.54667 11.3475L3.36417 10L4.54667 8.64333L5.06 8.0475L4.9775 7.25917L4.8125 5.48083L6.55417 5.08667L7.32417 4.9125L7.7275 4.23417L8.635 2.69417L10.2667 3.4L11 3.71167L11.7242 3.4L13.3558 2.69417L14.2633 4.23417L14.6667 4.9125L15.4367 5.08667L17.1783 5.48083L17.0133 7.26833L16.94 8.0475L17.4533 8.64333L18.6358 9.99083L17.4625 11.3475Z" fill="#6C6A81"/>
<path d="M9.24929 11.6044L7.12263 9.46852L5.76596 10.8344L9.24929 14.3269L15.9776 7.58019L14.621 6.21436L9.24929 11.6044Z" fill="#6C6A81"/>
</svg>
