<svg width="18" height="20" viewBox="0 0 18 20" fill="none" xmlns="http://www.w3.org/2000/svg">
<path d="M10.6683 19.1671H7.33168C6.90096 19.1671 6.52828 18.8673 6.4361 18.4466L6.06302 16.7196C5.56531 16.5015 5.09339 16.2288 4.65593 15.9065L2.97202 16.4427C2.56135 16.5737 2.11492 16.4009 1.89952 16.0275L0.227516 13.1391C0.0144711 12.7655 0.0878692 12.2944 0.404432 12.0033L1.71068 10.8117C1.65128 10.2718 1.65128 9.72714 1.71068 9.18732L0.404432 7.99841C0.0874029 7.70725 0.0139757 7.23548 0.227516 6.86174L1.89585 3.97149C2.11125 3.59813 2.55768 3.42528 2.96835 3.55624L4.65227 4.09249C4.87599 3.92672 5.10889 3.7737 5.34985 3.63416C5.58116 3.50371 5.81922 3.3856 6.06302 3.28032L6.43702 1.55516C6.52875 1.13438 6.90102 0.834193 7.33168 0.83374H10.6683C11.099 0.834193 11.4713 1.13438 11.563 1.55516L11.9407 3.28124C12.1981 3.39446 12.4487 3.5224 12.6914 3.66441C12.9178 3.79532 13.1366 3.93885 13.3469 4.09432L15.0317 3.55807C15.4421 3.4276 15.888 3.60039 16.1033 3.97332L17.7716 6.86357C17.9846 7.2371 17.9112 7.70829 17.5947 7.99932L16.2884 9.19099C16.3478 9.73081 16.3478 10.2755 16.2884 10.8153L17.5947 12.007C17.9112 12.298 17.9846 12.7692 17.7716 13.1427L16.1033 16.033C15.888 16.4059 15.4421 16.5787 15.0317 16.4482L13.3469 15.912C13.1337 16.069 12.9121 16.2144 12.6832 16.3474C12.4429 16.4867 12.195 16.6124 11.9407 16.7242L11.563 18.4466C11.4709 18.867 11.0987 19.1667 10.6683 19.1671ZM4.98502 13.877L5.73668 14.427C5.90613 14.5518 6.08274 14.6666 6.2656 14.7707C6.43766 14.8704 6.61482 14.961 6.79635 15.0421L7.6516 15.417L8.07052 17.3337H9.93135L10.3503 15.4161L11.2055 15.0412C11.5789 14.8765 11.9333 14.6718 12.2624 14.4307L13.015 13.8807L14.8859 14.4765L15.8164 12.865L14.3653 11.5422L14.4679 10.6146C14.513 10.2088 14.513 9.79933 14.4679 9.39358L14.3653 8.46591L15.8173 7.14041L14.8859 5.52799L13.015 6.12382L12.2624 5.57382C11.9332 5.33156 11.5788 5.12535 11.2055 4.95874L10.3503 4.58382L9.93135 2.66707H8.07052L7.64977 4.58474L6.79635 4.95874C6.61467 5.03853 6.43749 5.12819 6.2656 5.22732C6.08386 5.33121 5.90818 5.44537 5.73943 5.56924L4.98685 6.11924L3.11685 5.52341L2.1846 7.14041L3.63568 8.46132L3.53302 9.38991C3.48792 9.79566 3.48792 10.2052 3.53302 10.6109L3.63568 11.5386L2.1846 12.8613L3.11502 14.4728L4.98502 13.877ZM8.99635 13.6671C6.97131 13.6671 5.32968 12.0255 5.32968 10.0004C5.32968 7.97536 6.97131 6.33374 8.99635 6.33374C11.0214 6.33374 12.663 7.97536 12.663 10.0004C12.6605 12.0244 11.0203 13.6646 8.99635 13.6671ZM8.99635 8.16707C7.9948 8.16809 7.17941 8.97268 7.16506 9.97414C7.15071 10.9756 7.9427 11.8032 8.94381 11.8329C9.94493 11.8626 10.7846 11.0834 10.8297 10.0829V10.4496V10.0004C10.8297 8.98789 10.0089 8.16707 8.99635 8.16707Z" fill="#6C6A81"/>
</svg>
