<svg width="41" height="40" viewBox="0 0 41 40" fill="none" xmlns="http://www.w3.org/2000/svg">
<path d="M22.6663 5.33329H5.99967C4.89461 5.33329 3.8348 5.77228 3.0534 6.55368C2.27199 7.33508 1.83301 8.39489 1.83301 9.49996V30.3333M1.83301 30.3333V34.5C1.83301 35.605 2.27199 36.6648 3.0534 37.4462C3.8348 38.2276 4.89461 38.6666 5.99967 38.6666H30.9997C32.1047 38.6666 33.1645 38.2276 33.946 37.4462C34.7274 36.6648 35.1663 35.605 35.1663 34.5V26.1666M1.83301 30.3333L11.3872 20.7791C12.1685 19.998 13.2282 19.5592 14.333 19.5592C15.4379 19.5592 16.4975 19.998 17.2788 20.7791L22.6663 26.1666M35.1663 17.8333V26.1666M35.1663 26.1666L31.8622 22.8625C31.0808 22.0813 30.0212 21.6425 28.9163 21.6425C27.8115 21.6425 26.7519 22.0813 25.9705 22.8625L22.6663 26.1666M22.6663 26.1666L26.833 30.3333M30.9997 5.33329H39.333M35.1663 1.16663V9.49996M22.6663 13.6666H22.6872" stroke="#6C6A81" stroke-width="2" stroke-linecap="round" stroke-linejoin="round"/>
</svg>
