<svg width="80" height="80" viewBox="0 0 80 80" fill="none" xmlns="http://www.w3.org/2000/svg">
<path d="M70.1208 36.9298C70.352 35.6709 70.4688 34.3869 70.4688 33.0938C70.4688 21.462 61.0067 12 49.375 12C41.95 12 35.0677 15.9552 31.2866 22.2402C26.1825 20.5855 20.9456 21.295 16.6313 24.2681C12.3169 27.2389 9.74187 31.9425 9.53359 37.0855C3.86188 39.7794 0 45.5152 0 51.8438C0 52.9423 0.266094 54.0136 0.469688 55.0527L0.472031 55.055C1.98734 62.7019 8.75531 68.25 16.5625 68.25H63.4375C72.483 68.25 80 60.8892 80 51.8438C80 45.4466 76.0855 39.6878 70.1208 36.9298Z" fill="#6C6A81"/>
<path d="M42.9 55H37.1V43H32L40 35L48 43H42.9V55Z" fill="#F5F6F7"/>
</svg>
